<svg width="102" height="31" viewBox="0 0 102 31" fill="none" xmlns="http://www.w3.org/2000/svg">
<path d="M0.818182 24V0.727272H8.68182C10.5 0.727272 11.9924 1.03788 13.1591 1.65909C14.3258 2.27273 15.1894 3.11742 15.75 4.19318C16.3106 5.26894 16.5909 6.49242 16.5909 7.86364C16.5909 9.23485 16.3106 10.4508 15.75 11.5114C15.1894 12.572 14.3295 13.4053 13.1705 14.0114C12.0114 14.6098 10.5303 14.9091 8.72727 14.9091H2.36364V12.3636H8.63636C9.87879 12.3636 10.8788 12.1818 11.6364 11.8182C12.4015 11.4545 12.9545 10.9394 13.2955 10.2727C13.6439 9.59848 13.8182 8.79545 13.8182 7.86364C13.8182 6.93182 13.6439 6.11742 13.2955 5.42045C12.947 4.72348 12.3902 4.18561 11.625 3.80682C10.8598 3.42045 9.84848 3.22727 8.59091 3.22727H3.63636V24H0.818182ZM11.7727 13.5455L17.5 24H14.2273L8.59091 13.5455H11.7727ZM28.054 24.3636C26.3722 24.3636 24.9214 23.9924 23.7017 23.25C22.4896 22.5 21.554 21.4545 20.8949 20.1136C20.2434 18.7652 19.9176 17.197 19.9176 15.4091C19.9176 13.6212 20.2434 12.0455 20.8949 10.6818C21.554 9.31061 22.4706 8.24242 23.6449 7.47727C24.8267 6.70455 26.2055 6.31818 27.7812 6.31818C28.6903 6.31818 29.5881 6.4697 30.4744 6.77273C31.3608 7.07576 32.1676 7.56818 32.8949 8.25C33.6222 8.92424 34.2017 9.81818 34.6335 10.9318C35.0653 12.0455 35.2812 13.4167 35.2812 15.0455V16.1818H21.8267V13.8636H32.554C32.554 12.8788 32.357 12 31.9631 11.2273C31.5767 10.4545 31.0237 9.8447 30.304 9.39773C29.5919 8.95076 28.7509 8.72727 27.7812 8.72727C26.7131 8.72727 25.7888 8.99242 25.0085 9.52273C24.2358 10.0455 23.6411 10.7273 23.2244 11.5682C22.8078 12.4091 22.5994 13.3106 22.5994 14.2727V15.8182C22.5994 17.1364 22.8267 18.2538 23.2812 19.1705C23.7434 20.0795 24.3835 20.7727 25.2017 21.25C26.0199 21.7197 26.9706 21.9545 28.054 21.9545C28.7585 21.9545 29.3949 21.8561 29.9631 21.6591C30.5388 21.4545 31.035 21.1515 31.4517 20.75C31.8684 20.3409 32.1903 19.8333 32.4176 19.2273L35.0085 19.9545C34.7358 20.8333 34.2775 21.6061 33.6335 22.2727C32.9896 22.9318 32.1941 23.447 31.2472 23.8182C30.3002 24.1818 29.2358 24.3636 28.054 24.3636ZM51.2699 30.5455V21.3182H51.0426C50.8456 21.6364 50.5653 22.0379 50.2017 22.5227C49.8381 23 49.3191 23.428 48.6449 23.8068C47.9706 24.178 47.0729 24.3636 45.9517 24.3636C44.4972 24.3636 43.2131 23.9962 42.0994 23.2614C40.9858 22.5189 40.1146 21.4735 39.4858 20.125C38.857 18.7689 38.5426 17.1667 38.5426 15.3182C38.5426 13.4848 38.857 11.8939 39.4858 10.5455C40.1146 9.19697 40.9896 8.1553 42.1108 7.42045C43.232 6.68561 44.5275 6.31818 45.9972 6.31818C47.1335 6.31818 48.0313 6.50758 48.6903 6.88636C49.357 7.25758 49.8646 7.68182 50.2131 8.15909C50.5691 8.62879 50.8456 9.01515 51.0426 9.31818H51.3608V6.54545H53.9517V30.5455H51.2699ZM46.3153 21.9545C47.3911 21.9545 48.3002 21.6742 49.0426 21.1136C49.785 20.5455 50.3494 19.7614 50.7358 18.7614C51.1222 17.7538 51.3153 16.5909 51.3153 15.2727C51.3153 13.9697 51.1259 12.8295 50.7472 11.8523C50.3684 10.8674 49.8078 10.1023 49.0653 9.55682C48.3229 9.00379 47.4063 8.72727 46.3153 8.72727C45.179 8.72727 44.232 9.01894 43.4744 9.60227C42.7244 10.178 42.16 10.9621 41.7812 11.9545C41.41 12.9394 41.2244 14.0455 41.2244 15.2727C41.2244 16.5152 41.4138 17.6439 41.7926 18.6591C42.179 19.6667 42.7472 20.4697 43.4972 21.0682C44.2547 21.6591 45.1941 21.9545 46.3153 21.9545ZM58.8608 24V6.54545H61.4517V9.18182H61.6335C61.9517 8.31818 62.5275 7.61742 63.3608 7.07954C64.1941 6.54167 65.1335 6.27273 66.179 6.27273C66.3759 6.27273 66.6222 6.27651 66.9176 6.28409C67.2131 6.29167 67.4366 6.30303 67.5881 6.31818V9.04545C67.4972 9.02273 67.2888 8.98864 66.9631 8.94318C66.6449 8.89015 66.3078 8.86364 65.9517 8.86364C65.1032 8.86364 64.3456 9.04167 63.679 9.39773C63.0199 9.74621 62.4972 10.2311 62.1108 10.8523C61.732 11.4659 61.5426 12.1667 61.5426 12.9545V24H58.8608ZM77.554 24.3636C75.8722 24.3636 74.4214 23.9924 73.2017 23.25C71.9896 22.5 71.054 21.4545 70.3949 20.1136C69.7434 18.7652 69.4176 17.197 69.4176 15.4091C69.4176 13.6212 69.7434 12.0455 70.3949 10.6818C71.054 9.31061 71.9706 8.24242 73.1449 7.47727C74.3267 6.70455 75.7055 6.31818 77.2812 6.31818C78.1903 6.31818 79.0881 6.4697 79.9744 6.77273C80.8608 7.07576 81.6676 7.56818 82.3949 8.25C83.1222 8.92424 83.7017 9.81818 84.1335 10.9318C84.5653 12.0455 84.7812 13.4167 84.7812 15.0455V16.1818H71.3267V13.8636H82.054C82.054 12.8788 81.857 12 81.4631 11.2273C81.0767 10.4545 80.5237 9.8447 79.804 9.39773C79.0919 8.95076 78.2509 8.72727 77.2812 8.72727C76.2131 8.72727 75.2888 8.99242 74.5085 9.52273C73.7358 10.0455 73.1411 10.7273 72.7244 11.5682C72.3078 12.4091 72.0994 13.3106 72.0994 14.2727V15.8182C72.0994 17.1364 72.3267 18.2538 72.7812 19.1705C73.2434 20.0795 73.8835 20.7727 74.7017 21.25C75.5199 21.7197 76.4706 21.9545 77.554 21.9545C78.2585 21.9545 78.8949 21.8561 79.4631 21.6591C80.0388 21.4545 80.535 21.1515 80.9517 20.75C81.3684 20.3409 81.6903 19.8333 81.9176 19.2273L84.5085 19.9545C84.2358 20.8333 83.7775 21.6061 83.1335 22.2727C82.4896 22.9318 81.6941 23.447 80.7472 23.8182C79.8002 24.1818 78.7358 24.3636 77.554 24.3636ZM101.224 10.4545L98.8153 11.1364C98.6638 10.7348 98.4403 10.3447 98.1449 9.96591C97.857 9.57955 97.4631 9.26136 96.9631 9.01136C96.4631 8.76136 95.8229 8.63636 95.0426 8.63636C93.9744 8.63636 93.0843 8.88258 92.3722 9.375C91.6676 9.85985 91.3153 10.4773 91.3153 11.2273C91.3153 11.8939 91.5578 12.4205 92.0426 12.8068C92.5275 13.1932 93.285 13.5152 94.3153 13.7727L96.9062 14.4091C98.4669 14.7879 99.6297 15.3674 100.395 16.1477C101.16 16.9205 101.543 17.9167 101.543 19.1364C101.543 20.1364 101.255 21.0303 100.679 21.8182C100.111 22.6061 99.3153 23.2273 98.2926 23.6818C97.2699 24.1364 96.0805 24.3636 94.7244 24.3636C92.9441 24.3636 91.4706 23.9773 90.304 23.2045C89.1373 22.4318 88.3987 21.303 88.0881 19.8182L90.6335 19.1818C90.8759 20.1212 91.3343 20.8258 92.0085 21.2955C92.6903 21.7652 93.5805 22 94.679 22C95.929 22 96.9214 21.7348 97.6562 21.2045C98.3987 20.6667 98.7699 20.0227 98.7699 19.2727C98.7699 18.6667 98.5578 18.1591 98.1335 17.75C97.7093 17.3333 97.0578 17.0227 96.179 16.8182L93.2699 16.1364C91.6714 15.7576 90.4972 15.1705 89.7472 14.375C89.0047 13.572 88.6335 12.5682 88.6335 11.3636C88.6335 10.3788 88.91 9.50758 89.4631 8.75C90.0237 7.99242 90.785 7.39773 91.7472 6.96591C92.7169 6.53409 93.8153 6.31818 95.0426 6.31818C96.7699 6.31818 98.1259 6.69697 99.1108 7.45454C100.103 8.21212 100.808 9.21212 101.224 10.4545Z" fill="white"/>
</svg>
